<svg id="visual" viewBox="0 0 900 200" width="900" height="200" xmlns="http://www.w3.org/2000/svg" xmlns:xlink="http://www.w3.org/1999/xlink" version="1.1"><path d="M0 49L21.5 52C43 55 86 61 128.8 58.2C171.7 55.3 214.3 43.7 257.2 41.7C300 39.7 343 47.3 385.8 52C428.7 56.7 471.3 58.3 514.2 56.5C557 54.7 600 49.3 642.8 43.8C685.7 38.3 728.3 32.7 771.2 35.5C814 38.3 857 49.7 878.5 55.3L900 61L900 0L878.5 0C857 0 814 0 771.2 0C728.3 0 685.7 0 642.8 0C600 0 557 0 514.2 0C471.3 0 428.7 0 385.8 0C343 0 300 0 257.2 0C214.3 0 171.7 0 128.8 0C86 0 43 0 21.5 0L0 0Z" fill="#1e2d42" stroke-linecap="round" stroke-linejoin="miter"></path></svg>