<svg id="visual" viewBox="0 0 900 200" width="900" height="200" xmlns="http://www.w3.org/2000/svg" xmlns:xlink="http://www.w3.org/1999/xlink" version="1.1"><path d="M0 165L21.5 158.7C43 152.3 86 139.7 128.8 134.5C171.7 129.3 214.3 131.7 257.2 134C300 136.3 343 138.7 385.8 145.2C428.7 151.7 471.3 162.3 514.2 167.5C557 172.7 600 172.3 642.8 166.8C685.7 161.3 728.3 150.7 771.2 148.5C814 146.3 857 152.7 878.5 155.8L900 159L900 201L878.5 201C857 201 814 201 771.2 201C728.3 201 685.7 201 642.8 201C600 201 557 201 514.2 201C471.3 201 428.7 201 385.8 201C343 201 300 201 257.2 201C214.3 201 171.7 201 128.8 201C86 201 43 201 21.5 201L0 201Z" fill="#1e2d42" stroke-linecap="round" stroke-linejoin="miter"></path></svg>